<?xml version="1.0" standalone="no"?>
<!DOCTYPE svg PUBLIC "-//W3C//DTD SVG 20010904//EN"
 "http://www.w3.org/TR/2001/REC-SVG-20010904/DTD/svg10.dtd">
<svg version="1.0" xmlns="http://www.w3.org/2000/svg"
 width="600.000000pt" height="600.000000pt" viewBox="0 0 600.000000 600.000000"
 preserveAspectRatio="xMidYMid meet">
<metadata>
Created by potrace 1.11, written by Peter Selinger 2001-2013
</metadata>
<g transform="translate(0.000000,600.000000) scale(0.100000,-0.100000)"
fill="#000000" stroke="none">
<path d="M2620 5249 c-36 -37 -71 -68 -78 -68 -13 -1 -53 19 -62 30 -6 8 -113
60 -115 56 -1 -1 -17 -24 -35 -52 -19 -27 -37 -51 -42 -53 -4 -2 -8 -8 -8 -14
0 -19 -30 -40 -48 -32 -9 4 -19 8 -22 9 -3 0 -27 11 -54 23 -94 43 -90 44
-137 -53 l-42 -87 -36 5 c-39 6 -126 24 -152 32 -13 4 -23 -14 -50 -90 l-34
-96 -70 7 c-38 3 -85 7 -102 9 -25 3 -33 0 -34 -13 0 -9 -2 -24 -4 -32 -2 -8
-9 -45 -16 -81 l-12 -67 -45 -6 c-24 -3 -71 -6 -102 -6 l-57 0 -6 -101 c-3
-55 -7 -102 -9 -104 -1 -2 -16 -5 -33 -8 -16 -3 -61 -11 -98 -18 l-68 -13 5
-35 c3 -20 8 -66 12 -103 l6 -67 -43 -11 c-24 -7 -50 -17 -58 -23 -8 -7 -15
-10 -15 -8 -2 7 -76 -20 -76 -28 0 -5 4 -21 9 -37 5 -16 15 -55 22 -86 11 -52
10 -60 -6 -78 -10 -11 -21 -17 -25 -15 -4 3 -18 -4 -31 -14 -14 -10 -41 -26
-62 -34 -20 -9 -37 -21 -37 -27 0 -6 13 -40 29 -75 17 -36 30 -66 30 -68 0 -1
3 -10 6 -20 8 -19 -10 -47 -31 -47 -8 0 -14 -4 -14 -8 0 -4 -21 -21 -46 -38
-26 -16 -51 -32 -56 -35 -8 -5 20 -68 62 -134 10 -16 19 -36 19 -43 1 -7 -31
-44 -70 -81 l-72 -69 22 -18 c11 -10 21 -22 21 -26 0 -8 18 -31 58 -76 25 -29
29 -57 7 -66 -8 -3 -15 -11 -15 -17 0 -7 -8 -18 -17 -25 -10 -7 -18 -16 -18
-21 0 -4 -12 -21 -27 -36 l-27 -29 70 -68 c42 -41 69 -76 69 -89 0 -12 -4 -21
-10 -21 -5 0 -12 -11 -16 -25 -3 -14 -10 -25 -16 -25 -5 0 -6 -4 -3 -10 3 -5
2 -10 -3 -10 -5 0 -16 -17 -24 -38 -12 -31 -12 -40 -2 -50 7 -7 17 -12 23 -12
5 0 11 -7 15 -15 3 -8 12 -15 21 -15 8 0 15 -4 15 -10 0 -5 5 -10 11 -10 6 0
17 -6 25 -14 7 -8 19 -16 26 -18 11 -4 -14 -83 -44 -142 -26 -50 -21 -60 50
-96 68 -34 73 -36 93 -39 6 0 9 -17 7 -39 l-4 -37 -112 -16 c-61 -8 -115 -18
-118 -22 -4 -4 -2 -44 4 -89 18 -125 16 -147 -11 -152 -12 -3 -123 -17 -247
-32 -124 -15 -227 -29 -229 -30 -2 -2 79 -87 180 -189 110 -111 185 -195 187
-208 1 -13 -49 -114 -123 -247 -81 -146 -120 -226 -112 -228 8 -1 211 22 453
53 241 31 479 61 527 67 l89 11 -6 31 c-11 64 -29 217 -25 221 2 2 32 7 67 11
59 6 62 6 62 -15 0 -22 3 -22 106 -19 l106 3 19 -60 c10 -33 23 -68 29 -77 5
-10 10 -24 10 -32 0 -11 12 -10 66 5 37 10 83 21 104 24 34 5 39 3 45 -17 4
-13 17 -39 29 -58 11 -19 21 -37 21 -40 1 -3 7 -17 15 -31 l15 -27 84 34 c92
37 121 42 121 19 0 -8 5 -15 10 -15 6 0 10 -7 10 -15 0 -9 7 -18 15 -21 8 -4
15 -10 15 -16 0 -5 12 -25 27 -44 19 -26 28 -32 34 -22 5 7 9 10 9 6 0 -6 104
52 127 72 21 18 32 12 99 -56 49 -50 69 -64 82 -58 9 4 20 8 24 8 4 1 23 16
42 33 19 18 39 33 45 33 7 0 14 7 17 15 7 18 34 20 34 3 0 -6 3 -9 6 -5 6 6
36 -16 67 -50 11 -12 24 -20 29 -17 4 3 8 1 8 -5 0 -6 9 -15 19 -21 16 -8 28
-1 78 47 32 32 51 53 43 49 -8 -5 -5 1 8 13 26 26 55 23 92 -9 13 -11 29 -20
37 -20 7 0 13 -3 13 -7 0 -12 61 -44 71 -37 5 3 7 10 4 15 -4 5 -1 9 5 9 6 0
13 7 17 16 3 9 17 28 29 42 13 14 24 29 24 34 0 12 26 38 38 38 5 0 47 -15 93
-34 61 -24 86 -30 95 -22 7 6 10 14 7 19 -2 4 1 7 7 7 6 0 9 4 6 9 -3 5 1 14
9 21 8 7 12 16 9 21 -3 5 -1 9 4 9 5 0 16 18 25 41 16 39 17 40 54 34 21 -3
60 -12 87 -20 73 -22 83 -20 91 17 4 18 11 38 15 43 5 6 9 13 9 18 1 4 1 8 2
10 0 1 2 11 4 22 7 36 28 65 44 61 9 -3 53 -8 98 -11 89 -8 85 -10 97 59 3 16
10 53 16 81 l11 52 96 6 c53 4 98 9 101 12 3 3 8 46 10 96 5 103 -1 97 117
120 39 7 79 18 90 25 11 6 188 33 393 60 l374 49 -6 35 c-3 19 -9 64 -12 100
l-6 66 208 28 c115 15 228 31 251 34 l42 7 -190 192 c-104 106 -189 197 -189
204 0 6 58 117 129 245 71 129 126 234 122 234 -3 0 -156 -20 -340 -45 l-333
-45 -19 23 c-10 12 -18 25 -19 29 0 4 -11 20 -25 35 -46 52 -50 58 -47 65 1 5
-2 8 -8 8 -5 0 -10 5 -10 10 0 11 2 13 52 70 17 19 38 48 48 63 l18 28 -70 70
-70 70 17 37 c10 20 23 44 30 52 7 8 22 31 32 50 18 33 19 36 3 53 -9 9 -21
17 -27 17 -5 0 -22 11 -37 25 -15 14 -31 25 -37 25 -5 0 -9 5 -9 10 0 6 -7 10
-16 10 -23 0 -12 58 22 123 8 15 13 27 9 27 -3 0 1 13 9 28 l15 29 -89 44
c-49 24 -89 49 -89 54 -1 6 10 51 23 102 l24 92 -67 21 c-36 11 -79 26 -95 32
l-28 11 6 102 7 102 -98 19 -98 19 -6 98 c-4 54 -8 99 -10 101 -2 2 -49 7
-104 12 l-100 9 -7 45 c-4 25 -9 56 -12 70 -3 14 -8 37 -11 52 -5 20 -11 26
-28 23 -12 -2 -57 -5 -101 -7 l-79 -3 -13 40 c-8 22 -16 45 -18 50 -2 6 -4 13
-5 18 0 4 -7 20 -15 36 -9 16 -12 32 -8 36 4 4 -4 5 -18 1 -148 -39 -204 -42
-205 -10 -1 5 -9 25 -20 44 -10 19 -26 49 -35 65 -16 31 -33 34 -75 15 -19 -9
-90 -35 -127 -47 -12 -4 -18 0 -18 11 0 9 -7 19 -15 22 -8 4 -15 12 -15 20 0
8 -4 14 -10 14 -5 0 -10 7 -10 15 0 9 -7 18 -15 21 -8 4 -12 10 -9 15 3 5 -2
12 -10 15 -9 3 -16 14 -16 23 0 14 -2 14 -10 1 -5 -8 -10 -12 -10 -8 0 9 -102
-51 -112 -66 -4 -6 -8 -7 -8 -1 0 5 -5 4 -12 -3 -22 -22 -38 -13 -108 56 l-69
68 -25 -23 c-14 -13 -30 -23 -35 -23 -6 0 -14 -6 -18 -12 -10 -16 -69 -58 -81
-58 -8 0 -40 25 -83 65 -9 8 -21 15 -27 15 -7 0 -12 4 -12 10 0 5 -8 13 -17
18 -15 8 -31 -4 -83 -59z m499 -204 c719 -105 1313 -575 1575 -1245 93 -239
129 -438 130 -710 0 -244 -23 -417 -58 -425 -11 -2 -75 -11 -141 -19 -66 -9
-881 -117 -1812 -241 -931 -124 -1701 -225 -1711 -225 -24 0 -77 112 -134 279
-77 228 -103 421 -95 695 4 151 11 217 32 316 79 380 251 709 512 981 313 326
707 528 1156 593 130 19 416 19 546 1z m1441 -2740 c0 -125 -4 -203 -11 -219
-9 -20 -9 -29 1 -41 8 -9 15 -51 18 -94 l4 -78 -32 -7 c-62 -12 -62 -12 -59
57 4 74 -2 87 -44 87 -54 0 -59 -9 -55 -91 l3 -73 -37 -7 c-21 -3 -40 -4 -43
-1 -3 3 -5 38 -5 79 0 58 -3 73 -15 73 -11 0 -15 11 -15 40 0 29 4 40 15 40
13 0 15 29 15 200 0 110 4 200 9 200 5 0 23 3 40 6 l31 7 0 -203 c0 -180 2
-201 16 -196 9 3 24 6 34 6 46 0 50 20 50 221 l0 189 40 0 40 0 0 -195z m-320
116 c0 -43 -1 -44 -102 -56 -32 -4 -62 -13 -68 -20 -7 -8 -9 -89 -8 -231 l3
-219 40 0 c22 0 61 4 88 7 l47 8 0 -40 c0 -21 -4 -41 -9 -44 -5 -4 -50 -9 -99
-12 -90 -7 -91 -7 -120 22 l-29 29 -7 228 c-7 248 -4 269 48 316 19 18 47 28
99 37 119 20 117 20 117 -25z m-322 -282 c2 -257 1 -276 -17 -306 -29 -47 -63
-65 -127 -67 -50 -1 -58 2 -83 30 l-28 31 -6 273 c-4 151 -5 275 -3 278 3 2
22 6 44 9 l40 5 1 -263 c1 -284 3 -294 54 -281 50 12 50 8 46 292 l-4 265 30
6 c17 4 35 6 40 4 6 -1 11 -103 13 -276z m-369 207 c15 -8 32 -26 39 -41 15
-33 16 -189 1 -217 -8 -15 -8 -27 1 -47 7 -14 14 -87 17 -162 l6 -136 -38 -7
c-20 -4 -39 -6 -41 -4 -1 2 -6 63 -10 135 -8 144 -8 146 -69 136 l-36 -6 7
-137 c4 -77 3 -140 -2 -143 -5 -3 -25 -7 -44 -9 -40 -4 -37 -17 -39 169 -1 85
-4 112 -13 110 -20 -3 -23 72 -4 79 13 5 16 28 16 139 l0 134 48 6 c26 3 54 8
62 9 36 8 73 5 99 -8z m-269 -55 c0 -41 -13 -51 -68 -51 l-24 0 7 -279 8 -279
-39 -4 c-22 -3 -40 -4 -42 -3 -1 1 -6 125 -9 274 l-6 273 -45 -4 -45 -3 0 40
0 40 109 16 c163 25 154 26 154 -20z m-531 -55 c47 -25 51 -48 51 -301 l0
-233 -26 -31 c-14 -18 -35 -36 -46 -42 -25 -13 -178 -38 -183 -29 -6 10 -8
620 -2 626 7 7 94 21 140 23 21 0 50 -5 66 -13z m-321 -53 c13 -8 27 -25 32
-39 6 -14 10 -126 10 -250 0 -249 -4 -268 -63 -304 -47 -29 -128 -27 -164 4
l-28 24 -3 241 c-3 203 -1 245 13 270 36 70 135 97 203 54z m-334 -33 c51 -19
56 -48 56 -306 l0 -236 -38 -38 c-67 -68 -169 -63 -207 10 -12 23 -15 73 -15
256 0 220 1 229 23 261 38 56 115 79 181 53z m-254 -29 c0 -5 -3 -22 -6 -39
-6 -29 -9 -30 -83 -41 -88 -13 -105 -28 -97 -81 3 -19 6 -54 6 -78 0 -39 2
-42 23 -38 12 3 37 7 55 10 l32 6 0 -44 0 -44 -55 -7 -55 -6 0 -145 0 -144
-24 0 c-13 0 -31 -3 -40 -6 -14 -5 -16 10 -16 135 0 119 -2 141 -15 141 -11 0
-15 12 -15 45 0 25 4 45 9 45 5 0 11 44 13 98 4 108 18 141 71 169 49 25 197
44 197 24z m2353 -484 c-11 -19 -88 -86 -158 -139 -248 -187 -542 -312 -871
-369 -164 -28 -443 -30 -603 -5 -206 33 -411 96 -565 173 l-79 40 64 7 c174
20 202 26 188 42 -13 16 -8 17 46 4 28 -7 72 -6 150 5 235 31 553 75 620 85
70 10 613 83 755 101 41 5 87 11 101 13 14 2 44 13 67 25 46 24 62 27 44 9
-19 -19 -14 -30 8 -18 10 6 23 9 27 8 18 -5 180 14 194 23 19 12 21 11 12 -4z"/>
<path d="M2750 4410 c-47 -11 -292 -60 -545 -109 -253 -50 -470 -93 -482 -96
-22 -5 -23 -9 -23 -119 0 -89 -3 -116 -15 -126 -8 -7 -15 -23 -15 -36 0 -12 7
-29 15 -38 13 -12 15 -68 15 -379 0 -356 0 -365 -20 -370 -16 -4 -20 -14 -20
-46 0 -51 15 -60 103 -57 l67 2 0 -34 c0 -51 20 -109 47 -139 21 -22 29 -25
66 -18 23 4 67 10 97 14 50 5 56 9 72 41 10 19 19 38 20 42 2 4 104 -18 228
-48 161 -40 238 -54 271 -51 l47 4 5 -54 c6 -55 42 -143 74 -178 52 -59 127
-73 189 -35 34 22 74 90 74 128 0 44 84 20 93 -27 5 -24 14 -32 44 -41 100
-29 126 -26 647 79 275 56 505 106 513 113 10 8 13 40 11 141 -3 135 -3 136
-50 151 -16 5 -18 21 -18 155 l0 149 -107 91 -108 92 -123 357 c-67 196 -127
359 -132 362 -5 3 -209 25 -452 48 -244 24 -456 45 -473 47 -16 2 -68 -5 -115
-15z m284 -56 c17 -7 22 -39 7 -48 -25 -16 -55 26 -34 47 8 8 8 8 27 1z m250
-36 c7 -12 7 -21 0 -28 -13 -13 -40 -4 -48 17 -14 35 27 44 48 11z m224 -22
c6 -27 -11 -38 -33 -22 -11 8 -16 19 -12 30 9 22 41 17 45 -8z m210 -8 c20
-20 14 -40 -10 -36 -15 2 -24 11 -26 26 -4 24 16 30 36 10z m-461 -104 c68 -4
129 -12 137 -18 17 -12 170 -541 162 -555 -3 -5 -63 -12 -133 -15 -71 -4 -155
-9 -188 -12 -42 -4 -65 -1 -78 8 -12 9 -40 99 -91 298 -40 157 -71 291 -68
299 3 10 20 12 71 8 36 -4 121 -9 188 -13z m-398 -39 c8 -17 14 -63 15 -110 1
-76 0 -80 -21 -83 -22 -3 -23 -8 -23 -85 0 -124 8 -157 36 -157 17 0 23 -6 26
-27 3 -25 7 -28 46 -31 39 -3 42 -5 42 -33 l0 -29 -82 0 c-46 0 -88 4 -95 8
-13 8 -22 550 -9 571 13 21 50 7 65 -24z m928 4 c12 -4 24 -16 27 -26 4 -10
42 -125 85 -255 44 -131 75 -240 70 -243 -4 -3 -75 -8 -156 -12 -130 -5 -150
-4 -162 11 -16 20 -171 528 -164 539 6 10 269 -2 300 -14z m-1434 -31 c-6 -7
-29 -37 -51 -66 -23 -30 -42 -62 -42 -72 0 -27 -39 -70 -64 -70 -13 0 -30 8
-38 18 -33 38 -30 52 27 123 56 70 62 73 149 77 21 2 26 -1 19 -10z m325 -261
l2 -257 -23 -11 c-16 -7 -53 -8 -113 -2 l-89 8 -3 244 c-1 157 1 248 8 255 13
13 91 24 160 22 l55 -1 3 -258z m-568 237 c0 -3 -20 -32 -45 -64 -25 -32 -45
-68 -45 -79 0 -24 -33 -61 -54 -61 -18 0 -46 38 -46 62 0 9 22 44 50 77 42 50
56 60 87 64 21 2 41 4 46 5 4 1 7 -1 7 -4z m-200 -30 c0 -3 -18 -29 -40 -56
-22 -28 -40 -58 -40 -68 0 -9 -9 -29 -20 -43 -19 -23 -20 -40 -20 -230 l0
-205 38 -6 c20 -3 148 -15 285 -28 136 -12 247 -25 247 -30 0 -5 -28 -6 -62
-2 -35 3 -171 16 -303 28 l-240 21 -5 250 -5 250 42 57 c40 54 48 59 111 67 6
0 12 -2 12 -5z m987 -106 c-3 -8 -6 -5 -6 6 -1 11 2 17 5 13 3 -3 4 -12 1 -19z
m72 -275 c1 -8 -11 -13 -29 -13 -37 0 -40 23 -7 50 22 18 22 18 29 -3 3 -12 6
-28 7 -34z m-481 -216 c3 -32 0 -37 -17 -37 -18 0 -21 6 -21 41 0 33 3 40 18
37 12 -2 18 -14 20 -41z m1750 -194 c3 -137 4 -136 -75 -146 l-43 -5 0 133 c0
150 -3 145 80 141 l35 -1 3 -122z m-181 61 c3 -9 1 -19 -5 -23 -7 -4 -112 -15
-234 -25 -123 -9 -238 -20 -255 -23 -25 -4 -33 -2 -33 10 0 8 6 20 13 26 11 8
239 32 490 50 10 0 20 -6 24 -15z m-617 -148 l0 -154 -47 -6 c-27 -4 -60 -9
-76 -12 l-28 -6 3 159 3 158 60 6 c33 3 66 6 73 7 9 2 12 -35 12 -152z m620
80 c0 -22 -6 -26 -42 -30 -55 -8 -451 -46 -472 -46 -19 0 -23 50 -3 51 6 0
118 11 247 23 129 13 243 24 253 25 12 1 17 -6 17 -23z m-910 -12 c0 -12 -9
-14 -42 -12 -59 4 -63 28 -4 28 35 0 46 -4 46 -16z m910 -59 c0 -14 -6 -25
-12 -25 -7 0 -112 -11 -233 -25 -284 -32 -285 -32 -285 0 0 20 5 25 28 26 15
0 122 11 237 23 280 31 265 31 265 1z m0 -59 c0 -8 -5 -18 -12 -22 -7 -4 -120
-22 -253 -40 -245 -33 -270 -32 -263 5 3 13 45 21 228 42 275 32 300 34 300
15z m-941 -9 c8 -10 7 -18 -3 -32 -15 -21 -36 -13 -36 14 0 31 20 40 39 18z
m-1192 -53 c16 -24 16 -27 0 -36 -23 -13 -23 -74 1 -87 13 -8 15 -14 6 -28 -6
-10 -19 -19 -28 -21 -38 -8 -62 131 -30 176 20 29 30 28 51 -4z m898 -154 c34
-36 60 -123 38 -128 -8 -2 -12 -9 -10 -15 3 -7 10 -11 17 -9 19 4 6 -76 -18
-107 -26 -35 -47 -37 -77 -7 -32 32 -32 42 2 41 37 0 57 41 48 100 -11 74 -59
116 -94 83 -11 -11 -12 -8 -6 12 10 33 34 60 55 60 9 0 29 -13 45 -30z m1225
-73 l0 -42 -133 -28 c-175 -36 -167 -37 -167 18 0 42 2 44 33 50 17 3 77 14
132 24 144 27 135 28 135 -22z m-1270 -43 c13 -33 13 -37 -3 -58 -13 -17 -14
-17 -30 -1 -17 16 -23 65 -10 78 14 15 34 6 43 -19z"/>
<path d="M4140 3340 c0 -5 16 -10 35 -10 19 0 35 5 35 10 0 6 -16 10 -35 10
-19 0 -35 -4 -35 -10z"/>
<path d="M4146 3264 c-31 -30 -11 -104 28 -104 37 0 62 80 34 108 -17 17 -44
15 -62 -4z"/>
<path d="M3348 3273 c-42 -7 -33 -23 12 -23 29 0 40 4 40 15 0 8 -6 14 -12 14
-7 -1 -25 -4 -40 -6z"/>
<path d="M3316 3178 c-37 -52 -2 -121 51 -102 39 13 60 55 47 91 -8 23 -16 29
-46 31 -28 2 -40 -2 -52 -20z"/>
<path d="M2775 2910 c-3 -5 -1 -10 4 -10 6 0 11 5 11 10 0 6 -2 10 -4 10 -3 0
-8 -4 -11 -10z"/>
<path d="M2830 2876 c0 -9 5 -16 10 -16 6 0 10 4 10 9 0 6 -4 13 -10 16 -5 3
-10 -1 -10 -9z"/>
<path d="M2847 2703 c-4 -3 -7 -11 -7 -17 0 -6 5 -5 12 2 6 6 9 14 7 17 -3 3
-9 2 -12 -2z"/>
<path d="M3448 2273 l-28 -4 0 -96 0 -95 38 7 c56 10 62 19 62 99 0 69 -10 98
-34 95 -6 -1 -23 -4 -38 -6z"/>
<path d="M2643 2163 l-23 -4 0 -235 c0 -261 -4 -248 69 -223 l31 11 0 217 c0
251 1 249 -77 234z"/>
<path d="M2302 2108 c-13 -13 -18 -411 -6 -442 7 -19 64 -22 82 -4 13 13 18
411 6 442 -7 19 -64 22 -82 4z"/>
<path d="M1986 2064 c-23 -22 -24 -425 -1 -447 15 -16 49 -13 73 6 17 13 17
428 0 445 -17 17 -54 15 -72 -4z"/>
</g>
</svg>
