<?xml version="1.0" encoding="utf-8"?>
<!-- Generator: Adobe Illustrator 16.0.0, SVG Export Plug-In . SVG Version: 6.00 Build 0)  -->
<!DOCTYPE svg PUBLIC "-//W3C//DTD SVG 1.1//EN" "http://www.w3.org/Graphics/SVG/1.1/DTD/svg11.dtd">
<svg version="1.1" id="Calque_1" xmlns="http://www.w3.org/2000/svg" xmlns:xlink="http://www.w3.org/1999/xlink" x="0px" y="0px"
	 width="189px" height="1491px" viewBox="1.594 0.486 189 1491" enable-background="new 1.594 0.486 189 1491" xml:space="preserve"
	>
<g id="grille">
</g>
<path d="M46.288,1276.041c1.335,22.021,6.727,38.762,16.184,50.217c9.452,11.457,22.188,17.184,38.203,17.184
	c7.784,0,14.901-1.393,21.354-4.172c6.449-2.779,12.012-6.725,16.684-11.844c4.671-5.115,8.343-11.181,11.013-18.187
	c2.669-7.006,4.004-14.848,4.004-23.522c0-18.021-4.785-34.478-14.349-49.383c-4.896-7.56-10.678-15.457-17.352-23.689
	c-6.674-8.227-13.903-17.125-21.688-26.693c-5.784-7.114-10.066-14.123-12.845-21.021c-2.785-6.892-4.172-13.121-4.172-18.685
	c0-6.893,1.553-12.346,4.672-16.35c3.113-4.004,6.891-6.006,11.344-6.006c6.449,0,11.229,2.668,14.347,8.008
	c3.114,5.338,4.893,13.681,5.34,25.025l32.367-4.004c-0.669-19.572-5.565-34.535-14.685-44.879
	c-9.123-10.345-21.577-15.517-37.369-15.517c-15.349,0-27.585,5.119-36.702,15.351c-9.125,10.233-13.681,24.356-13.681,42.375
	c0,12.901,4.112,26.916,12.346,42.041c4.672,8.457,11.063,17.239,19.186,26.356c8.119,9.125,16.517,19.58,25.193,31.365
	c4.445,6.232,7.838,12.18,10.174,17.853c2.338,5.674,3.505,11.627,3.505,17.852c0,8.676-1.669,15.297-5.005,19.854
	c-3.336,4.562-7.898,6.841-13.682,6.841c-13.569,0-20.354-13.121-20.354-39.371v-2.004L46.288,1276.041z"/>
<path d="M46.288,1006.543c1.335,22.021,6.727,38.764,16.184,50.217c9.452,11.459,22.188,17.184,38.203,17.184
	c7.784,0,14.901-1.393,21.354-4.172c6.449-2.779,12.012-6.725,16.684-11.844c4.671-5.115,8.343-11.181,11.013-18.187
	c2.669-7.006,4.004-14.848,4.004-23.522c0-18.019-4.785-34.476-14.349-49.381c-4.896-7.562-10.678-15.459-17.352-23.691
	c-6.674-8.227-13.903-17.125-21.688-26.693c-5.784-7.114-10.066-14.121-12.845-21.02c-2.785-6.894-4.172-13.123-4.172-18.687
	c0-6.893,1.553-12.346,4.672-16.35c3.113-4.004,6.891-6.006,11.344-6.006c6.449,0,11.229,2.67,14.347,8.01
	c3.114,5.336,4.893,13.678,5.34,25.023l32.367-4.006c-0.669-19.57-5.565-34.533-14.685-44.877
	c-9.123-10.344-21.577-15.516-37.369-15.516c-15.349,0-27.585,5.119-36.702,15.35c-9.125,10.233-13.681,24.356-13.681,42.375
	c0,12.901,4.112,26.918,12.346,42.041c4.672,8.456,11.063,17.241,19.186,26.358c8.119,9.125,16.517,19.576,25.193,31.365
	c4.445,6.229,7.838,12.18,10.174,17.852c2.338,5.672,3.505,11.625,3.505,17.851c0,8.676-1.669,15.297-5.005,19.854
	c-3.336,4.563-7.898,6.84-13.682,6.84c-13.569,0-20.354-13.123-20.354-39.37v-2.003L46.288,1006.543z"/>
<path d="M85.494,719.027L99.508,578.89h1.669l13.349,140.138L85.494,719.027L85.494,719.027z M41.451,799.775h35.034l5.672-48.715
	h35.703l6.006,48.715h36.368l-37.035-241.239h-46.38L41.451,799.775z"/>
<path d="M82.99,397.813v-78.076h11.678c11.12,0,18.737,2.894,22.856,8.674c4.11,5.788,6.174,15.465,6.174,29.029
	c0,15.129-2.283,25.64-6.843,31.531c-4.562,5.896-12.961,8.842-25.19,8.842H82.99L82.99,397.813z M47.288,530.277H82.99V428.842
	h15.682l28.362,101.435h36.702l-31.697-109.107c10.01-5.114,17.184-12.68,21.521-22.689s6.505-23.022,6.505-39.039
	c0-13.565-1.281-24.909-3.836-34.034c-2.562-9.118-6.674-16.349-12.349-21.688c-5.672-5.339-13.233-9.119-22.688-11.345
	c-9.457-2.222-20.967-3.336-34.534-3.336H47.288V530.277z"/>
<path d="M81.157,120.308V49.905h11.346c11.12,0,18.853,2.56,23.188,7.675c4.339,5.118,6.508,14.014,6.508,26.691
	c0,13.128-2.117,22.413-6.341,27.861c-4.229,5.452-12.234,8.175-24.021,8.175L81.157,120.308L81.157,120.308z M81.157,229.749
	v-77.744h12.679c11.787,0,20.021,2.669,24.69,8.009c4.672,5.338,7.008,14.795,7.008,28.361c0,15.129-2.226,25.806-6.672,32.031
	c-4.453,6.23-12.795,9.343-25.026,9.343H81.157z M45.455,260.779h46.381c24.909,0,42.817-5.447,53.72-16.35
	c10.896-10.895,16.348-28.694,16.348-53.385c0-15.349-2.116-27.638-6.338-36.87c-4.229-9.229-11.236-15.735-21.023-19.52
	c8.897-3.778,15.127-9.895,18.687-18.352c3.557-8.451,5.34-19.795,5.34-34.034c0-12.012-1.226-22.073-3.669-30.197
	c-2.452-8.116-6.398-14.565-11.845-19.353c-5.455-4.78-12.514-8.174-21.188-10.176s-19.243-3.003-31.698-3.003H45.455V260.779z"/>
<path d="M161.868,1448.26v-4.81h-4.869v4.81h-2.373v2.994h2.373v8.739c0,1.498,0.271,2.634,0.811,3.4
	c0.749,1.063,2.061,1.594,3.934,1.594c0.831,0,1.872-0.063,3.122-0.188v-3.84c-0.5,0.063-0.99,0.094-1.467,0.094
	c-0.502,0-0.882-0.14-1.141-0.422c-0.262-0.279-0.39-0.691-0.39-1.23v-8.147h2.901v-2.994H161.868L161.868,1448.26z
	 M145.636,1447.51c-1.913,0-3.507,0.447-4.773,1.342c-1.499,1.041-2.247,2.527-2.247,4.463c0,1.707,0.854,2.945,2.559,3.713
	c0.646,0.293,2.217,0.699,4.714,1.219c1.707,0.334,2.561,0.832,2.561,1.498c0,0.563-0.22,0.984-0.657,1.265
	c-0.437,0.281-1.102,0.422-1.995,0.422c-1.874,0-3.622-0.781-5.244-2.342l-3.025,2.623c1.268,1.166,2.476,1.985,3.619,2.463
	c1.248,0.543,2.746,0.813,4.492,0.813c2.061,0,3.769-0.446,5.121-1.342c1.579-1.041,2.37-2.568,2.37-4.59
	c0-1.789-0.854-3.078-2.559-3.869c-0.603-0.27-2.175-0.676-4.714-1.217c-1.704-0.354-2.558-0.896-2.558-1.623
	c0-0.438,0.175-0.76,0.527-0.969c0.354-0.207,0.874-0.312,1.563-0.312c0.832,0,1.665,0.156,2.497,0.467
	c0.937,0.334,1.632,0.771,2.092,1.313l2.994-2.934C150.579,1448.311,148.133,1447.51,145.636,1447.51 M125.538,1451.848
	c0.604-0.521,1.3-0.779,2.091-0.779c0.832,0,1.541,0.229,2.125,0.687c0.728,0.563,1.122,1.395,1.185,2.498h-6.617
	C124.427,1453.232,124.83,1452.43,125.538,1451.848 M133.996,1450.443c-1.396-1.955-3.506-2.934-6.336-2.934
	c-2.539,0-4.53,0.813-5.976,2.434c-1.446,1.625-2.169,3.892-2.169,6.806c0,2.413,0.717,4.368,2.152,5.866
	c1.478,1.582,3.475,2.373,5.991,2.373c3.726,0,6.408-1.528,8.052-4.588l-3.65-1.901c-0.771,1.1-1.394,1.84-1.871,2.213
	c-0.604,0.479-1.333,0.719-2.186,0.719c-0.938,0-1.729-0.303-2.372-0.906c-0.813-0.727-1.229-1.818-1.248-3.275h11.423
	C135.785,1454.396,135.183,1452.129,133.996,1450.443 M113.429,1464.551v-9.613c0-0.893,0.313-1.529,0.937-1.904
	c0.563-0.332,1.601-0.594,3.12-0.776l0.531-0.064l-0.032-4.307c-1.954,0.146-3.472,0.729-4.556,1.748v-1.688h-4.869v16.605H113.429z
	 M90.146,1449.82c-1.622,1.541-2.435,3.683-2.435,6.428c0,2.748,0.813,4.892,2.435,6.431c1.624,1.539,3.756,2.311,6.399,2.311
	c2.643,0,4.774-0.771,6.396-2.311s2.435-3.683,2.435-6.431c0-2.745-0.813-4.887-2.435-6.428c-1.622-1.539-3.755-2.311-6.396-2.311
	C93.902,1447.51,91.77,1448.281,90.146,1449.82 M99.573,1452.659c0.622,0.854,0.935,1.986,0.935,3.4
	c0,1.728-0.326,3.022-0.981,3.885c-0.655,0.867-1.649,1.299-2.979,1.299c-1.334,0-2.342-0.479-3.026-1.438
	c-0.624-0.875-0.938-2.062-0.938-3.56c0-1.497,0.313-2.684,0.938-3.559c0.686-0.955,1.692-1.436,3.026-1.436
	C97.856,1451.254,98.866,1451.725,99.573,1452.659 M74.76,1464.551v-8.926h10.581v-4.308H74.76v-4.682h11.424v-4.308H69.205v22.222
	L74.76,1464.551L74.76,1464.551z M46.89,1451.848c0.604-0.521,1.3-0.779,2.09-0.779c0.833,0,1.541,0.229,2.123,0.687
	c0.729,0.563,1.124,1.395,1.186,2.498h-6.616C45.777,1453.232,46.182,1452.43,46.89,1451.848 M55.348,1450.443
	c-1.395-1.955-3.507-2.934-6.336-2.934c-2.539,0-4.532,0.813-5.978,2.434c-1.446,1.625-2.168,3.892-2.168,6.806
	c0,2.413,0.717,4.368,2.154,5.866c1.476,1.582,3.475,2.373,5.992,2.373c3.724,0,6.408-1.528,8.053-4.588l-3.652-1.901
	c-0.77,1.1-1.394,1.84-1.872,2.213c-0.604,0.479-1.332,0.719-2.185,0.719c-0.937,0-1.729-0.303-2.372-0.906
	c-0.813-0.727-1.229-1.818-1.248-3.275h11.421C57.138,1454.396,56.534,1452.129,55.348,1450.443 M31.972,1460.041
	c-0.563,0.926-1.416,1.389-2.561,1.389c-1.102,0-1.936-0.432-2.496-1.295c-0.563-0.863-0.843-2.158-0.843-3.887
	c0-1.728,0.28-3.021,0.843-3.886c0.562-0.864,1.395-1.295,2.496-1.295c1.145,0,1.998,0.4,2.561,1.199
	c0.562,0.803,0.842,2.016,0.842,3.637C32.814,1457.738,32.534,1459.115,31.972,1460.041 M32.814,1442.329v6.929
	c-0.563-0.584-1.223-1.021-1.981-1.313c-0.76-0.289-1.618-0.436-2.575-0.436c-1.935,0-3.536,0.655-4.806,1.967
	c-1.54,1.561-2.289,3.858-2.248,6.896c0.042,2.871,0.771,5.058,2.186,6.556c1.27,1.373,2.965,2.061,5.089,2.061
	c0.956,0,1.803-0.172,2.543-0.516c0.736-0.344,1.377-0.857,1.918-1.545l0.063,1.623h4.682v-22.222L32.814,1442.329L32.814,1442.329z
	"/>
<path d="M138.241,1412.838h-4.867v22.223h4.867V1412.838z M119.701,1422.357c0.604-0.52,1.301-0.779,2.092-0.779
	c0.833,0,1.539,0.229,2.122,0.687c0.729,0.563,1.124,1.395,1.188,2.496h-6.617C118.589,1423.741,118.996,1422.941,119.701,1422.357
	 M128.16,1420.952c-1.396-1.954-3.507-2.934-6.335-2.934c-2.539,0-4.531,0.813-5.978,2.434c-1.447,1.623-2.167,3.894-2.167,6.806
	c0,2.414,0.716,4.369,2.15,5.869c1.479,1.58,3.475,2.369,5.993,2.369c3.724,0,6.408-1.529,8.053-4.587l-3.651-1.903
	c-0.771,1.104-1.395,1.842-1.872,2.217c-0.605,0.477-1.334,0.717-2.186,0.717c-0.937,0-1.729-0.301-2.373-0.906
	c-0.81-0.727-1.229-1.819-1.248-3.274h11.424C129.949,1424.906,129.347,1422.639,128.16,1420.952 M107.593,1435.061v-9.611
	c0-0.896,0.313-1.528,0.938-1.905c0.561-0.332,1.602-0.593,3.121-0.779l0.529-0.063l-0.031-4.307
	c-1.956,0.145-3.477,0.727-4.558,1.746v-1.684h-4.866v16.604H107.593z M93.485,1418.457v10.518c0,0.854-0.211,1.498-0.638,1.936
	c-0.428,0.437-1.078,0.656-1.953,0.656c-0.79,0-1.382-0.188-1.778-0.563c-0.396-0.375-0.593-0.938-0.593-1.687v-10.86h-4.869v12.266
	c0,1.58,0.423,2.772,1.265,3.572c0.842,0.803,2.096,1.201,3.76,1.201c1.062,0,1.992-0.16,2.795-0.482
	c0.8-0.322,1.471-0.797,2.012-1.42v1.467h4.869v-16.604H93.485z M77.975,1418.77v-4.807h-4.87v4.807h-2.371v2.996h2.371v8.738
	c0,1.498,0.271,2.633,0.813,3.401c0.749,1.062,2.061,1.59,3.932,1.59c0.833,0,1.874-0.061,3.122-0.186v-3.84
	c-0.5,0.063-0.989,0.096-1.469,0.096c-0.499,0-0.879-0.143-1.139-0.422c-0.261-0.283-0.39-0.691-0.39-1.234v-8.145h2.902v-2.996
	L77.975,1418.77L77.975,1418.77z M68.3,1412.838h-4.867v22.223H68.3V1412.838z M54.193,1418.457v10.518
	c0,0.854-0.213,1.498-0.64,1.936c-0.428,0.437-1.077,0.656-1.95,0.656c-0.792,0-1.385-0.188-1.779-0.563
	c-0.395-0.375-0.593-0.938-0.593-1.687v-10.86h-4.869v12.266c0,1.58,0.422,2.772,1.265,3.572c0.842,0.803,2.096,1.201,3.762,1.201
	c1.06,0,1.99-0.16,2.792-0.482c0.801-0.322,1.472-0.797,2.014-1.42v1.467h4.869v-16.604H54.193z M32.19,1412.215
	c-3.33,0-5.992,1.176-7.99,3.526c-1.872,2.185-2.808,4.92-2.808,8.207c0,3.269,0.987,6.004,2.965,8.211
	c2.101,2.351,4.858,3.525,8.271,3.525c1.853,0,3.568-0.51,5.15-1.529c1.581-1.02,2.851-2.403,3.808-4.151l-4.399-2.121
	c-0.417,0.936-1.077,1.69-1.982,2.262c-0.904,0.574-1.763,0.859-2.575,0.859c-1.997,0-3.485-0.771-4.463-2.312
	c-0.812-1.248-1.217-2.828-1.217-4.744c0-2.371,0.531-4.172,1.591-5.397c0.957-1.104,2.258-1.654,3.902-1.654
	c0.977,0,1.897,0.301,2.761,0.906c0.863,0.604,1.483,1.414,1.856,2.434l4.432-2.217C39.327,1414.15,36.227,1412.215,32.19,1412.215"
	/>
<path d="M109.901,1392.866c0.604-0.518,1.301-0.778,2.091-0.778c0.834,0,1.539,0.229,2.123,0.688
	c0.729,0.561,1.124,1.393,1.188,2.496h-6.617C108.788,1394.252,109.195,1393.45,109.901,1392.866 M118.36,1391.465
	c-1.396-1.957-3.505-2.937-6.335-2.937c-2.539,0-4.532,0.813-5.979,2.437c-1.445,1.623-2.167,3.891-2.167,6.803
	c0,2.414,0.716,4.371,2.153,5.867c1.477,1.582,3.472,2.373,5.991,2.373c3.724,0,6.408-1.529,8.052-4.588l-3.651-1.904
	c-0.77,1.104-1.394,1.842-1.873,2.215c-0.604,0.479-1.33,0.721-2.183,0.721c-0.938,0-1.729-0.303-2.372-0.906
	c-0.813-0.729-1.229-1.819-1.25-3.276h11.422C120.149,1395.418,119.546,1393.148,118.36,1391.465 M97.792,1405.57v-9.613
	c0-0.895,0.314-1.528,0.938-1.901c0.561-0.334,1.601-0.592,3.121-0.781l0.529-0.063l-0.029-4.308
	c-1.958,0.146-3.477,0.729-4.561,1.748v-1.686h-4.867v16.604H97.792z M87.244,1389.279v-4.807h-4.868v4.807h-2.372v2.996h2.372
	v8.738c0,1.498,0.271,2.633,0.813,3.401c0.749,1.063,2.06,1.593,3.932,1.593c0.833,0,1.874-0.063,3.12-0.188v-3.838
	c-0.499,0.062-0.987,0.094-1.467,0.094c-0.498,0-0.878-0.141-1.139-0.422c-0.262-0.281-0.391-0.69-0.391-1.231v-8.146h2.903v-2.996
	H87.244z M67.738,1405.57v-10.33c0-0.938,0.219-1.635,0.655-2.092s1.082-0.687,1.935-0.687c0.791,0,1.383,0.226,1.779,0.671
	c0.395,0.448,0.593,1.129,0.593,2.045v10.393h4.868v-12.266c0-1.603-0.416-2.799-1.247-3.59c-0.833-0.789-2.092-1.187-3.777-1.187
	c-1.062,0-1.993,0.156-2.793,0.469c-0.8,0.313-1.472,0.791-2.013,1.437v-1.467H62.87v16.604H67.738z M49.201,1392.866
	c0.604-0.518,1.299-0.778,2.09-0.778c0.832,0,1.54,0.229,2.123,0.688c0.729,0.561,1.123,1.393,1.187,2.496h-6.617
	C48.086,1394.252,48.492,1393.45,49.201,1392.866 M57.658,1391.465c-1.395-1.957-3.506-2.937-6.336-2.937
	c-2.539,0-4.531,0.813-5.977,2.437c-1.446,1.623-2.17,3.891-2.17,6.803c0,2.414,0.719,4.371,2.153,5.867
	c1.479,1.582,3.477,2.373,5.993,2.373c3.725,0,6.408-1.529,8.053-4.588l-3.651-1.904c-0.771,1.104-1.395,1.842-1.873,2.215
	c-0.604,0.479-1.331,0.721-2.186,0.721c-0.936,0-1.727-0.303-2.372-0.906c-0.811-0.729-1.228-1.819-1.249-3.276h11.423
	C59.447,1395.418,58.844,1393.148,57.658,1391.465 M32.19,1382.725c-3.33,0-5.992,1.178-7.99,3.525
	c-1.872,2.186-2.808,4.924-2.808,8.209c0,3.268,0.987,6.004,2.965,8.209c2.101,2.354,4.858,3.526,8.271,3.526
	c1.853,0,3.568-0.51,5.15-1.529c1.581-1.02,2.851-2.403,3.808-4.151l-4.399-2.121c-0.417,0.936-1.077,1.691-1.982,2.262
	c-0.904,0.572-1.763,0.859-2.575,0.859c-1.997,0-3.485-0.771-4.463-2.312c-0.812-1.248-1.217-2.828-1.217-4.744
	c0-2.37,0.531-4.17,1.591-5.397c0.957-1.103,2.258-1.654,3.902-1.654c0.977,0,1.897,0.303,2.761,0.906
	c0.863,0.603,1.483,1.414,1.856,2.434l4.432-2.217C39.327,1384.659,36.227,1382.725,32.19,1382.725"/>
</svg>
