<?xml version="1.0" encoding="utf-8"?>
<!-- Generator: Adobe Illustrator 16.0.0, SVG Export Plug-In . SVG Version: 6.00 Build 0)  -->
<!DOCTYPE svg PUBLIC "-//W3C//DTD SVG 1.1//EN" "http://www.w3.org/Graphics/SVG/1.1/DTD/svg11.dtd">
<svg version="1.1" id="Calque_1" xmlns="http://www.w3.org/2000/svg" xmlns:xlink="http://www.w3.org/1999/xlink" x="0px" y="0px"
	 width="800px" height="1280px" viewBox="0 0 800 1280" enable-background="new 0 0 800 1280" xml:space="preserve">
<line fill="none" stroke="#000000" stroke-miterlimit="10" x1="110.479" y1="143.609" x2="562.652" y2="817.521"/>
<line fill="none" stroke="#000000" stroke-miterlimit="10" x1="562.652" y1="817.521" x2="1014.824" y2="1491.431"/>
<line fill="none" stroke="#000000" stroke-miterlimit="10" x1="562.652" y1="319.696" x2="1014.824" y2="993.605"/>
<line fill="none" stroke="#000000" stroke-miterlimit="10" x1="686.944" y1="504.939" x2="373.521" y2="587.087"/>
<line fill="none" stroke="#000000" stroke-miterlimit="10" x1="373.521" y1="587.087" x2="60.098" y2="669.234"/>
<line fill="none" stroke="#000000" stroke-miterlimit="10" x1="336.565" y1="669.234" x2="216.81" y2="939.261"/>
<line fill="none" stroke="#000000" stroke-miterlimit="10" x1="153.957" y1="546.013" x2="358.304" y2="745.782"/>
<line fill="none" stroke="#000000" stroke-miterlimit="10" x1="419.174" y1="456.652" x2="267.13" y2="656.65"/>
<line fill="none" stroke="#000000" stroke-miterlimit="10" x1="110.479" y1="146.043" x2="162.652" y2="617.897"/>
<line fill="none" stroke="#000000" stroke-miterlimit="10" x1="245" y1="763.5" x2="243" y2="763.5"/>
<line fill="none" stroke="#000000" stroke-miterlimit="10" x1="162.652" y1="617.897" x2="400" y2="774.043"/>
<line fill="none" stroke="#000000" stroke-miterlimit="10" x1="419.174" y1="456.652" x2="400" y2="774.043"/>
<line fill="none" stroke="#000000" stroke-miterlimit="10" x1="110.479" y1="146.043" x2="419.174" y2="456.652"/>
<line fill="none" stroke="#000000" stroke-miterlimit="10" x1="75.696" y1="669.234" x2="788.738" y2="684.913"/>
<line fill="none" stroke="#000000" stroke-miterlimit="10" x1="562.652" y1="319.696" x2="703.957" y2="1100.131"/>
<line fill="none" stroke="#000000" stroke-miterlimit="10" x1="336.565" y1="684.913" x2="301.783" y2="1187.087"/>
<line fill="none" stroke="#000000" stroke-miterlimit="10" x1="216.81" y1="950.131" x2="301.783" y2="1202.305"/>
<line fill="none" stroke="#000000" stroke-miterlimit="10" x1="400" y1="774.043" x2="714.826" y2="1115.348"/>
<g>
	<g>
		<path d="M233,626c3.869,0,3.869-6,0-6S229.131,626,233,626L233,626z"/>
	</g>
</g>
<g>
	<g>
		<path d="M366,531c7.738,0,7.738-12,0-12S358.262,531,366,531L366,531z"/>
	</g>
</g>
<g>
	<g>
		<path d="M233,625.5c5.804,0,5.804-9,0-9S227.196,625.5,233,625.5L233,625.5z"/>
	</g>
</g>
<g>
	<g>
		<path d="M688,508c3.869,0,3.869-6,0-6S684.131,508,688,508L688,508z"/>
	</g>
</g>
<g>
	<g>
		<path d="M217,955.5c9.673,0,9.673-15,0-15S207.327,955.5,217,955.5L217,955.5z"/>
	</g>
</g>
<g>
	<g>
		<path d="M400,777c3.869,0,3.869-6,0-6S396.131,777,400,777L400,777z"/>
	</g>
</g>
<g>
	<g>
		<path d="M337,681.5c5.804,0,5.804-9,0-9S331.196,681.5,337,681.5L337,681.5z"/>
	</g>
</g>
<g>
	<g>
		<path d="M632,690c7.738,0,7.738-12,0-12S624.262,690,632,690L632,690z"/>
	</g>
</g>
<g>
	<g>
		<path d="M563,323c3.869,0,3.869-6,0-6S559.131,323,563,323L563,323z"/>
	</g>
</g>
</svg>
